<svg width="933" height="878" viewBox="0 0 933 878" fill="none" xmlns="http://www.w3.org/2000/svg">
<g clip-path="url(#clip0_54_76)">
<mask id="mask0_54_76" style="mask-type:luminance" maskUnits="userSpaceOnUse" x="0" y="47" width="886" height="570">
<path d="M886 47H0V617H886V47Z" fill="white"/>
</mask>
<g mask="url(#mask0_54_76)">
<path d="M759.254 -128.033V213.033C759.254 230.136 773.118 244 790.22 244C807.323 244 821.187 230.136 821.187 213.033V-128.033C821.187 -145.136 807.323 -159 790.22 -159C773.118 -159 759.254 -145.136 759.254 -128.033Z" fill="#FFF6F0"/>
<path d="M759.254 -128.033V213.033C759.254 230.136 773.118 244 790.22 244C807.323 244 821.187 230.136 821.187 213.033V-128.033C821.187 -145.136 807.323 -159 790.22 -159C773.118 -159 759.254 -145.136 759.254 -128.033Z" stroke="#7D3100" stroke-width="2"/>
<path d="M792.722 226.767H787.717C787.07 226.767 786.511 226.317 786.373 225.686L785.813 223.096C785.067 222.768 784.359 222.359 783.703 221.876L781.176 222.68C780.56 222.877 779.891 222.617 779.568 222.057L777.059 217.724C776.74 217.164 776.85 216.457 777.325 216.02L779.284 214.233C779.195 213.423 779.195 212.606 779.284 211.796L777.325 210.012C776.849 209.576 776.739 208.868 777.059 208.307L779.562 203.971C779.885 203.411 780.555 203.152 781.171 203.348L783.697 204.153C784.033 203.904 784.382 203.675 784.744 203.465C785.091 203.27 785.448 203.092 785.813 202.934L786.374 200.346C786.512 199.715 787.071 199.265 787.717 199.264H792.722C793.368 199.265 793.927 199.715 794.064 200.346L794.631 202.936C795.017 203.106 795.393 203.298 795.757 203.511C796.097 203.707 796.425 203.922 796.74 204.156L799.268 203.351C799.884 203.155 800.552 203.415 800.875 203.974L803.378 208.31C803.698 208.87 803.588 209.577 803.113 210.014L801.153 211.801C801.242 212.611 801.242 213.428 801.153 214.238L803.113 216.026C803.588 216.462 803.698 217.169 803.378 217.73L800.875 222.066C800.552 222.625 799.884 222.884 799.268 222.688L796.74 221.884C796.421 222.12 796.088 222.338 795.745 222.537C795.384 222.746 795.012 222.935 794.631 223.102L794.064 225.686C793.926 226.317 793.368 226.767 792.722 226.767ZM784.196 218.831L785.324 219.656C785.578 219.844 785.843 220.016 786.117 220.172C786.375 220.321 786.641 220.457 786.914 220.579L788.197 221.141L788.825 224.017H791.617L792.245 221.14L793.528 220.578C794.088 220.331 794.62 220.024 795.114 219.662L796.243 218.837L799.049 219.731L800.445 217.313L798.268 215.329L798.422 213.937C798.49 213.328 798.49 212.714 798.422 212.105L798.268 210.714L800.446 208.725L799.049 206.306L796.243 207.2L795.114 206.375C794.62 206.012 794.088 205.702 793.528 205.452L792.245 204.89L791.617 202.015H788.825L788.194 204.891L786.914 205.452C786.641 205.572 786.375 205.707 786.117 205.855C785.845 206.011 785.581 206.182 785.328 206.368L784.199 207.193L781.394 206.299L779.995 208.725L782.172 210.707L782.018 212.1C781.95 212.709 781.95 213.323 782.018 213.932L782.172 215.323L779.995 217.308L781.391 219.725L784.196 218.831ZM790.214 218.516C787.176 218.516 784.713 216.054 784.713 213.016C784.713 209.978 787.176 207.515 790.214 207.515C793.252 207.515 795.714 209.978 795.714 213.016C795.711 216.052 793.25 218.512 790.214 218.516ZM790.214 210.265C788.711 210.267 787.488 211.474 787.467 212.976C787.445 214.479 788.633 215.72 790.135 215.765C791.637 215.809 792.897 214.64 792.964 213.139V213.69V213.016C792.964 211.497 791.733 210.265 790.214 210.265Z" fill="#7D3100"/>
<path d="M304.625 78.6208H214.105C204.106 78.6208 196 86.7267 196 96.7258V152.848C196 162.847 204.106 170.953 214.105 170.953H304.625C314.624 170.953 322.73 162.847 322.73 152.848V96.7258C322.73 86.7267 314.624 78.6208 304.625 78.6208Z" fill="#FFF6F0" stroke="#7D3100" stroke-width="2"/>
<path d="M674.625 444H584.105C574.106 444 566 452.106 566 462.105V518.227C566 528.226 574.106 536.332 584.105 536.332H674.625C684.624 536.332 692.73 528.226 692.73 518.227V462.105C692.73 452.106 684.624 444 674.625 444Z" fill="#7D3100" stroke="#7D3100"/>
<path d="M227.564 155.037H222.559C221.913 155.037 221.354 154.588 221.216 153.957L220.656 151.366C219.91 151.039 219.202 150.63 218.546 150.146L216.02 150.951C215.404 151.147 214.734 150.888 214.411 150.328L211.903 145.995C211.583 145.435 211.693 144.728 212.168 144.292L214.128 142.504C214.039 141.694 214.039 140.877 214.128 140.068L212.168 138.284C211.693 137.848 211.583 137.14 211.903 136.579L214.405 132.244C214.729 131.684 215.398 131.425 216.014 131.621L218.54 132.425C218.876 132.177 219.225 131.947 219.586 131.738C219.933 131.542 220.291 131.365 220.656 131.207L221.217 128.619C221.355 127.988 221.913 127.538 222.559 127.537H227.564C228.21 127.538 228.769 127.988 228.906 128.619L229.473 131.209C229.859 131.378 230.235 131.57 230.599 131.783C230.938 131.98 231.267 132.195 231.582 132.428L234.109 131.624C234.725 131.428 235.394 131.687 235.717 132.247L238.219 136.582C238.539 137.142 238.429 137.849 237.954 138.286L235.994 140.073C236.083 140.883 236.083 141.7 235.994 142.51L237.954 144.297C238.429 144.734 238.539 145.441 238.219 146.001L235.717 150.336C235.394 150.896 234.725 151.155 234.109 150.959L231.582 150.155C231.262 150.39 230.93 150.608 230.586 150.808C230.226 151.017 229.854 151.205 229.473 151.373L228.906 153.957C228.768 154.587 228.21 155.037 227.564 155.037ZM219.039 147.102L220.167 147.927C220.421 148.114 220.686 148.287 220.96 148.443C221.218 148.592 221.484 148.728 221.756 148.85L223.039 149.412L223.667 152.287H226.459L227.087 149.411L228.37 148.848C228.93 148.602 229.462 148.294 229.955 147.933L231.084 147.108L233.891 148.001L235.286 145.584L233.11 143.6L233.264 142.209C233.331 141.6 233.331 140.986 233.264 140.377L233.11 138.986L235.288 136.997L233.891 134.579L231.084 135.472L229.955 134.647C229.461 134.284 228.93 133.975 228.37 133.725L227.087 133.162L226.459 130.287H223.667L223.036 133.164L221.756 133.725C221.484 133.844 221.218 133.979 220.96 134.128C220.687 134.284 220.424 134.455 220.171 134.641L219.042 135.466L216.237 134.572L214.839 136.997L217.015 138.979L216.861 140.372C216.794 140.98 216.794 141.594 216.861 142.203L217.015 143.595L214.839 145.579L216.234 147.996L219.039 147.102ZM225.056 146.787C222.019 146.787 219.556 144.325 219.556 141.287C219.556 138.25 222.019 135.787 225.056 135.787C228.094 135.787 230.556 138.25 230.556 141.287C230.552 144.323 228.092 146.784 225.056 146.787ZM225.056 138.537C223.554 138.539 222.331 139.746 222.309 141.248C222.288 142.75 223.476 143.992 224.977 144.036C226.479 144.081 227.739 142.912 227.806 141.411V141.961V141.287C227.806 139.769 226.575 138.537 225.056 138.537Z" fill="#7D3100"/>
<path fill-rule="evenodd" clip-rule="evenodd" d="M275 479.5C275 489.717 266.717 498 256.5 498C246.283 498 238 489.717 238 479.5C238 469.283 246.283 461 256.5 461C266.717 461 275 469.283 275 479.5Z" fill="#FFBB95"/>
<path d="M275 479.5C275 489.717 266.717 498 256.5 498C246.283 498 238 489.717 238 479.5C238 469.283 246.283 461 256.5 461C266.717 461 275 469.283 275 479.5Z" stroke="#7D3100" stroke-width="2.1"/>
<path d="M275 482.5H780.5C786.023 482.5 790.5 486.977 790.5 492.5V617" stroke="#7D3100" stroke-width="2.1"/>
<path d="M693.625 433H603.105C593.106 433 585 441.106 585 451.105V507.227C585 517.226 593.106 525.332 603.105 525.332H693.625C703.624 525.332 711.73 517.226 711.73 507.227V451.105C711.73 441.106 703.624 433 693.625 433Z" fill="#FFBB95" stroke="#7D3100" stroke-width="2"/>
<path d="M697.311 448.068L692.763 452.616L688.215 448.068L687.068 449.215L691.616 453.763L687.068 458.311L688.215 459.458L692.763 454.91L697.311 459.458L698.458 458.311L693.91 453.763L698.458 449.215L697.311 448.068Z" fill="#7D3100"/>
<path fill-rule="evenodd" clip-rule="evenodd" d="M433.565 503.059C433.565 503.059 449.271 494.665 438.243 481.043C427.217 467.421 436.07 459.853 442.169 456H480.059C473.96 459.853 465.106 467.421 476.133 481.043C487.16 494.665 471.455 503.059 471.455 503.059H433.565Z" fill="#FFF6F0" stroke="#7D3100" stroke-width="2"/>
<path d="M0 332H889" stroke="#7D3100" stroke-width="2.1"/>
<path d="M527.125 290.05H359.625C342.186 290.05 328.05 304.187 328.05 321.625V343.375C328.05 360.813 342.186 374.95 359.625 374.95H527.125C544.563 374.95 558.7 360.813 558.7 343.375V321.625C558.7 304.187 544.563 290.05 527.125 290.05Z" fill="white"/>
<path d="M527.125 290.05H359.625C342.186 290.05 328.05 304.187 328.05 321.625V343.375C328.05 360.813 342.186 374.95 359.625 374.95H527.125C544.563 374.95 558.7 360.813 558.7 343.375V321.625C558.7 304.187 544.563 290.05 527.125 290.05Z" stroke="#7D3100" stroke-width="2.1"/>
<path d="M400.211 318.095H403.617V345.5H400.211V342.133C398.645 344.521 396.14 346.009 392.812 346.009C387.37 346.009 382.907 341.507 382.907 335.713C382.907 329.918 387.37 325.416 392.812 325.416C396.14 325.416 398.645 326.904 400.211 329.292V318.095ZM393.243 342.72C397.197 342.72 400.211 339.706 400.211 335.713C400.211 331.719 397.197 328.705 393.243 328.705C389.328 328.705 386.313 331.719 386.313 335.713C386.313 339.706 389.328 342.72 393.243 342.72ZM411.166 337.279C411.832 340.802 414.611 342.799 418.252 342.799C420.954 342.799 422.911 341.546 423.89 339.941L426.787 341.585C425.064 344.247 422.089 346.009 418.174 346.009C411.871 346.009 407.682 341.585 407.682 335.713C407.682 329.918 411.832 325.416 417.939 325.416C423.851 325.416 427.687 330.271 427.687 335.752C427.687 336.261 427.648 336.77 427.57 337.279H411.166ZM417.939 328.626C414.259 328.626 411.714 330.897 411.166 334.303H424.242C423.655 330.427 420.875 328.626 417.939 328.626ZM442.408 325.416C447.85 325.416 452.313 329.918 452.313 335.713C452.313 341.507 447.85 346.009 442.408 346.009C439.08 346.009 436.575 344.521 435.009 342.133V353.33H431.603V325.925H435.009V329.292C436.575 326.904 439.08 325.416 442.408 325.416ZM441.977 342.72C445.892 342.72 448.907 339.706 448.907 335.713C448.907 331.719 445.892 328.705 441.977 328.705C438.023 328.705 435.009 331.719 435.009 335.713C435.009 339.706 438.023 342.72 441.977 342.72ZM456.377 345.5V316.921H459.783V345.5H456.377ZM474.18 346.009C468.464 346.009 463.883 341.507 463.883 335.713C463.883 329.918 468.464 325.416 474.18 325.416C479.896 325.416 484.515 329.918 484.515 335.713C484.515 341.507 479.896 346.009 474.18 346.009ZM474.18 342.681C478.095 342.681 481.109 339.667 481.109 335.713C481.109 331.758 478.095 328.744 474.18 328.744C470.304 328.744 467.289 331.758 467.289 335.713C467.289 339.667 470.304 342.681 474.18 342.681ZM501.429 325.925H505.07L497.084 346.714C495.439 351.098 492.386 353.604 488.392 353.33V350.159C491.016 350.355 492.66 348.749 493.678 346.166L494.03 345.422L485.495 325.925H489.136L495.792 341.272L501.429 325.925Z" fill="#7D3100"/>
<path d="M182.5 617V208.5C182.5 202.977 186.977 198.5 192.5 198.5H701C706.523 198.5 711 202.977 711 208.5V276C711 281.523 715.477 286 721 286H886" stroke="#7D3100" stroke-width="2.1"/>
<path d="M494.776 149.495H418.485C410.058 149.495 403.227 156.326 403.227 164.753V212.053C403.227 220.48 410.058 227.312 418.485 227.312H494.776C503.203 227.312 510.034 220.48 510.034 212.053V164.753C510.034 156.326 503.203 149.495 494.776 149.495Z" fill="#FFE0CF" stroke="#7D3100" stroke-width="2"/>
<path d="M493.659 162.375L489.111 166.922L484.563 162.375L483.416 163.522L487.964 168.07L483.416 172.617L484.563 173.764L489.111 169.217L493.659 173.764L494.806 172.617L490.258 168.07L494.806 163.522L493.659 162.375Z" fill="#7D3100"/>
<path fill-rule="evenodd" clip-rule="evenodd" d="M766.565 312.059C766.565 312.059 782.271 303.665 771.243 290.043C760.217 276.421 769.07 268.853 775.169 265H813.059C806.96 268.853 798.106 276.421 809.133 290.043C820.16 303.665 804.455 312.059 804.455 312.059H766.565Z" fill="#FFF6F0" stroke="#7D3100" stroke-width="2"/>
<path d="M93 188.976L93 530.042C93 547.145 106.864 561.009 123.967 561.009C141.069 561.009 154.933 547.145 154.933 530.042L154.933 188.976C154.933 171.873 141.069 158.009 123.967 158.009C106.864 158.009 93 171.873 93 188.976Z" fill="#FFF6F0"/>
<path d="M93 188.976L93 530.042C93 547.145 106.864 561.009 123.967 561.009C141.069 561.009 154.933 547.145 154.933 530.042L154.933 188.976C154.933 171.873 141.069 158.009 123.967 158.009C106.864 158.009 93 171.873 93 188.976Z" stroke="#7D3100" stroke-width="2"/>
<path d="M129.899 192.172L120.293 182.566L118.031 184.825L125.384 192.172L118.031 199.518L120.291 201.778L129.899 192.172Z" fill="#7D3100"/>
<path fill-rule="evenodd" clip-rule="evenodd" d="M846.599 498.3C846.599 501.227 844.227 503.599 841.3 503.599C838.373 503.599 836 501.227 836 498.3C836 495.373 838.373 493 841.3 493C844.227 493 846.599 495.373 846.599 498.3Z" fill="#FFE0CF" stroke="#7D3100" stroke-width="2.11986"/>
<path fill-rule="evenodd" clip-rule="evenodd" d="M757.599 562.3C757.599 565.227 755.227 567.599 752.3 567.599C749.373 567.599 747 565.227 747 562.3C747 559.373 749.373 557 752.3 557C755.227 557 757.599 559.373 757.599 562.3Z" fill="#7D3100" stroke="#7D3100" stroke-width="2.11986"/>
<path fill-rule="evenodd" clip-rule="evenodd" d="M734.599 135.3C734.599 138.227 732.227 140.599 729.3 140.599C726.373 140.599 724 138.227 724 135.3C724 132.373 726.373 130 729.3 130C732.227 130 734.599 132.373 734.599 135.3Z" fill="#FFE0CF" stroke="#7D3100" stroke-width="2.11986"/>
<path fill-rule="evenodd" clip-rule="evenodd" d="M328.599 119.3C328.599 122.227 326.227 124.599 323.3 124.599C320.373 124.599 318 122.227 318 119.3C318 116.373 320.373 114 323.3 114C326.227 114 328.599 116.373 328.599 119.3Z" fill="#FFE0CF" stroke="#7D3100" stroke-width="2.11986"/>
<path fill-rule="evenodd" clip-rule="evenodd" d="M47.5993 387.3C47.5993 390.227 45.2266 392.599 42.2997 392.599C39.3727 392.599 37 390.227 37 387.3C37 384.373 39.3727 382 42.2997 382C45.2266 382 47.5993 384.373 47.5993 387.3Z" fill="#FFBB95" stroke="#7D3100" stroke-width="2.11986"/>
<path d="M531 358.5C537.904 358.5 543.5 352.904 543.5 346C543.5 339.096 537.904 333.5 531 333.5C524.096 333.5 518.5 339.096 518.5 346C518.5 352.904 524.096 358.5 531 358.5Z" stroke="#FFBB95" stroke-width="3"/>
<path d="M531 353C534.866 353 538 349.866 538 346C538 342.134 534.866 339 531 339C527.134 339 524 342.134 524 346C524 349.866 527.134 353 531 353Z" stroke="#FF7923" stroke-width="2"/>
<path d="M532.281 347.884L535.222 383.487C535.302 384.456 536.559 384.781 537.098 383.972L545.978 370.661C546.155 370.395 546.446 370.227 546.765 370.206L562.733 369.172C563.702 369.109 564.049 367.859 563.251 367.305L533.888 346.957C533.176 346.463 532.21 347.021 532.281 347.884Z" fill="#7D3100" stroke="#7D3100" stroke-width="4.10328"/>
</g>
</g>
<path d="M317.1 579.5V791.1L457.2 829V572.7L317.1 579.5Z" fill="#B59478"/>
<path d="M457.2 572.7L628 576.1V799.4L457.2 829V572.7Z" fill="#C6A78B"/>
<path d="M317.1 681.4L423 695.7L457.2 572.7L354.7 617.1L317.1 654.7V681.4Z" fill="#A38066"/>
<path d="M457.2 572.7L481.4 695.7L628 688.8V576.1L457.2 572.7Z" fill="#B7977D"/>
<path d="M317.1 579.5L279.5 668.3L412.7 682L457.1 572.6L317.1 579.5Z" fill="#C6AB99"/>
<path d="M457.2 572.7L484.5 678.6L655.3 671.8L628 576.1L457.2 572.7Z" fill="#D8B79C"/>
<mask id="mask1_54_76" style="mask-type:luminance" maskUnits="userSpaceOnUse" x="341" y="695" width="86" height="94">
<path d="M426.8 695.4H341.8V788.4H426.8V695.4Z" fill="white"/>
</mask>
<g mask="url(#mask1_54_76)">
<path d="M377.8 695.4H380.7C396.8 696.3 408.9 704 417.8 716.9C424 725.9 427.1 736.7 426.6 747.6C426.5 757.4 423.3 767 417.4 774.9C412.6 781.4 405.6 786 397.8 788.1L396.8 788.3C396.4 788.4 395.9 788.5 395.5 788.4C395.1 788.3 394.7 788.1 394.3 787.8C394 787.5 393.7 787.2 393.5 786.7C393.3 786.3 393.3 785.8 393.3 785.4C393.4 781.8 393.6 778.2 393.7 774.7C394 772 394 769.2 393.7 766.4C393.5 764.8 392.9 763.2 392 761.8C391.5 760.9 391.5 760.8 392.6 760.8C394.9 760.9 397.2 760.8 399.4 760.5C402 760.3 404.5 759.2 406.5 757.5C408.5 755.8 409.9 753.5 410.5 751C411.6 747.3 412 743.3 411.5 739.5C411.1 737.1 410.1 734.7 408.6 732.7C408.3 732.3 408.1 731.9 408 731.4C407.9 730.9 408 730.4 408.1 730C409 726.6 409 723 408 719.6C407.9 719.3 407.7 718.9 407.5 718.7C407.2 718.5 406.9 718.4 406.5 718.4C405.2 718.3 404 718.5 402.8 718.9C400.7 719.6 398.7 720.4 396.8 721.5C396.5 721.7 396.2 721.8 395.9 721.8C395.6 721.8 395.2 721.8 394.9 721.6C390.4 719.6 385.6 718.5 380.7 718.3C379.1 718.3 377.5 718.3 375.8 718.6C375.3 718.7 374.9 718.7 374.4 718.5C373.9 718.4 373.5 718.1 373.2 717.8C371.1 715.8 368.7 714.1 366.2 712.7C365.5 712.3 364.7 712.1 363.9 711.9C363.7 711.8 363.6 711.8 363.4 711.8C363.2 711.8 363.1 711.9 362.9 711.9C362.8 712 362.6 712.1 362.5 712.2C362.4 712.3 362.3 712.5 362.3 712.7C361 716.1 360.8 719.7 361.5 723.3C361.6 723.7 361.6 724.1 361.5 724.5C361.4 724.9 361.2 725.3 360.9 725.6C358.7 728 357.5 731 357.4 734.2C357 738.5 357.6 742.9 359.1 747C360 749.1 361.3 751.1 363 752.7C364.7 754.3 366.7 755.5 368.9 756.3C370.8 757.1 372.8 757.7 374.8 758.2C375.7 758.5 375.8 758.6 375.2 759.3C374.2 760.6 373.5 762 373.2 763.6C373.2 763.9 373 764.2 372.8 764.4C372.6 764.6 372.3 764.7 372 764.8C369.9 765.4 367.7 765.3 365.8 764.4C363.8 763.5 362.3 762 361.3 760.1C360.7 758.8 359.9 757.5 359 756.3C358 755.1 356.6 754.1 355.2 753.4C354.7 753.1 354.1 753 353.5 752.9C352.6 752.9 352.3 753.5 352.7 754.2C353 754.7 353.4 755.2 353.8 755.6C355.9 757.4 357.4 759.8 358.1 762.5C359.8 768.7 364.6 770.5 369.7 770.9C370.4 770.9 371.1 770.9 371.8 770.9C372.5 770.9 372.8 771.1 372.8 771.8C372.7 775.3 372.6 778.8 372.4 782.4C372.4 784.3 370.8 785 369 784.1C366.6 782.9 364.4 781.5 362.3 779.8C351.7 771.4 344.7 759.5 342.6 746.3C342.2 743.8 341.9 741.3 341.9 738.8V735.7C342 728.2 343.9 720.8 347.5 714.2C350.1 709.2 354 704.9 358.7 701.6C363.4 698.3 368.8 696.3 374.5 695.6C375.5 695.5 376.7 695.5 377.8 695.4Z" fill="#A38066"/>
<path d="M361.7 762.3C362 762.4 362.2 762.5 362.4 762.7C362.6 762.9 362.7 763.2 362.7 763.4C362.7 763.7 362.6 764 362.3 764C361.6 764 361.3 763.5 361.2 762.9C361.1 762.4 361.3 762.4 361.7 762.3Z" fill="#A38066"/>
<path d="M369.2 766.7C369.2 766.8 369.2 766.9 369.1 767C369.1 767.1 369 767.2 368.9 767.2C368.8 767.3 368.7 767.3 368.6 767.3C368.5 767.3 368.4 767.3 368.3 767.3C367.8 767.3 367.4 767.1 367.3 766.5C367.2 765.9 367.7 765.9 368.1 765.9C368.3 765.9 368.6 765.9 368.7 766.1C369 766.3 369.1 766.5 369.2 766.7Z" fill="#A38066"/>
<path d="M371.5 767.4C371.1 767.4 370.7 767.2 370.7 766.7C370.7 766.2 371.1 766 371.6 766C372.1 766 372.4 766.2 372.4 766.7C372.4 767.2 372 767.4 371.5 767.4Z" fill="#A38066"/>
<path d="M365.7 765.7C365.7 766.2 365.4 766.3 365.1 766.2C364.8 766.1 364.1 765.9 364 765.3C364 764.7 364.4 764.8 364.7 764.8C364.9 764.8 365.2 764.9 365.3 765.1C365.5 765.2 365.6 765.4 365.7 765.7Z" fill="#A38066"/>
<path d="M360.5 760.4C360.5 760.8 360.5 761.1 360.1 761.1C359.7 761.1 359.3 760.6 359.2 760.1C359.1 759.6 359.3 759.4 359.7 759.5C360.1 759.5 360.4 760 360.5 760.4Z" fill="#A38066"/>
<path d="M358.4 758C358.2 758 358 757.9 357.9 757.7C357.8 757.6 357.7 757.4 357.7 757.2C357.7 756.9 357.8 756.7 358.1 756.7C358.3 756.7 358.5 756.8 358.6 757C358.7 757.1 358.8 757.3 358.8 757.5C358.9 757.8 358.7 758 358.4 758Z" fill="#A38066"/>
<path d="M356.4 754.9C356.6 754.9 356.7 755 356.8 755.1C356.9 755.2 357 755.4 357 755.5C357 755.8 356.9 755.9 356.6 755.9C356.4 755.9 356.3 755.8 356.2 755.7C356.1 755.6 356 755.4 356 755.3C356 755 356.1 754.9 356.4 754.9Z" fill="#A38066"/>
</g>
<path d="M562.557 791.3C544.353 790.913 531.592 776.765 533.601 758.751C536.335 734.242 539.666 709.81 542.742 685.344C552.646 686.858 559.814 699.206 557.483 710.611C556.172 717.021 554.466 723.341 552.955 729.706C552.614 731.141 552.341 732.592 552.018 734.122C572.855 733.004 583.029 738.329 587.987 753.335C583.942 754.221 579.984 755.343 575.946 755.8C574.898 755.918 573.451 754.098 572.446 752.934C568.321 748.155 562.135 746.252 556.638 748.214C551.318 750.114 547.405 755.557 547.161 761.397C546.908 767.451 550.427 773.136 556 775.679C563.965 779.314 573.427 774.762 575.185 765.945C575.866 762.53 577.308 761.432 580.316 761.04C583.234 760.66 586.091 759.831 588.948 759.206C592.699 774.363 580.015 789.74 562.557 791.3Z" fill="#A38066"/>
<path d="M535.167 717.968C534.593 721.302 534.076 724.291 533.559 727.281C533.056 727.178 532.553 727.075 532.05 726.973C531.585 715.709 531.12 704.445 530.653 693.111C537.795 693.92 538.159 694.347 537.372 700.691C536.672 706.337 535.942 711.979 535.167 717.968Z" fill="#A38066"/>
<path d="M528.671 722.521C529.146 729.736 529.614 736.567 530.082 743.398C529.895 743.421 529.708 743.445 529.521 743.468C526.53 729.816 523.539 716.163 520.544 702.491C526.271 701.754 527.28 702.615 527.772 708.732C528.131 713.199 528.37 717.668 528.671 722.521Z" fill="#A38066"/>
<defs>
<clipPath id="clip0_54_76">
<rect width="886" height="570" fill="white" transform="translate(0 47)"/>
</clipPath>
</defs>
</svg>
